<?xml version="1.0" encoding="UTF-8"?>
<svg id="Layer_1" data-name="Layer 1" xmlns="http://www.w3.org/2000/svg" viewBox="0 0 326.18 134.99">
  <defs>
    <style>
      .cls-1 {
        <!-- fill: #482ee6; -->

        fill: #0A3C5F;
      }
    </style>
  </defs>
  <path class="cls-1" d="m53.26,91.54c7.08-11.1,13.2-20.69,24.01-25.33l7.28-3.12v-23.91H1.42v24.04h42.22c-4.03,5.04-7.42,10.36-10.64,15.4-7.44,11.66-13.86,21.73-25.99,27.28L0,109.1v23.74h84.96v-24.04h-43.79c4.68-5.65,8.49-11.62,12.09-17.27Z"/>
  <polygon class="cls-1" points="92.95 63.21 106.04 63.21 106.04 132.84 130.07 132.84 130.07 39.18 92.95 39.18 92.95 63.21"/>
  <polygon class="cls-1" points="211.17 39.18 188.74 108.8 183.61 108.8 161.48 39.18 136.26 39.18 166.03 132.84 206.25 132.84 236.43 39.18 211.17 39.18"/>
  <circle class="cls-1" cx="112.55" cy="15.56" r="15.56" transform="translate(-1.04 18.23) rotate(-9.22)"/>
  <path class="cls-1" d="m279.1,112.39c-11.91-.78-19.43-9.39-21.99-19.58h68.56c.35-2.47.54-4.99.51-7.56.41-33.92-33.79-60.38-65.96-45.51-37.43,17.48-37.43,73.54,0,91.03,25.59,11.83,52.44-2.51,62.16-25.93h-27.67c-4.01,4.38-9.4,7.34-15.6,7.56Zm-9.34-52c14.12-7.02,27.52,3.04,31.32,16.4h-43.91c1.79-6.78,5.92-12.86,12.59-16.4Z"/>
</svg>
